# xmcd
#
# Track frame offsets: 
#        150
#        14745
#        25125
#        40212
#
# Disc length: 835 seconds
#
# Revision: 5
# Processed by: cddbd v1.5.2PL0 Copyright (c) Steve Scherf et al.
# Submitted via: ExactAudioCopy v1.0b3
#
DISCID=2b034104
DTITLE=Die Ärzte and Terrorgruppe - Rockgiganten vs. Straßenköter
DYEAR=1996
DGENRE=Punk Rock
TTITLE0=Terrorgruppe - Mach die Augen zu
TTITLE1=Terrorgruppe - Kopfüber in die Hölle
TTITLE2=Die Ärzte  - Namen vergessen
TTITLE3=Die Ärzte  - Rumhängen
EXTD=
EXTT0=
EXTT1=
EXTT2=
EXTT3=
PLAYORDER=
